<svg width="87" height="62" viewBox="0 0 87 62" fill="none" xmlns="http://www.w3.org/2000/svg">
<path d="M86.6947 25.4926C86.6947 40.6643 73.6032 47.4501 62.9573 60.4799C61.9886 61.6653 60.7847 61.6997 59.8608 60.4799C51.4379 49.3585 35.9165 42.0056 35.9165 25.5956C35.9165 11.5168 47.1233 0 61.2021 0C75.2809 0 86.6947 11.4129 86.6947 25.4926Z" fill="#FF2A23"/>
<path d="M31.5817 26.4209C31.5817 20.8408 33.3431 15.6641 36.3454 11.4465C32.9424 8.24337 29.5253 5.07463 26.8339 1.52015C25.91 0.300389 24.7061 0.334737 23.7374 1.52015C13.0906 14.55 0 21.3358 0 36.5075C0 50.5863 11.4129 62.0001 25.4926 62.0001C33.9913 62.0001 41.4428 57.8027 46.0145 51.3789C38.7682 44.5588 31.5817 37.5863 31.5817 26.4209Z" fill="#FF2A23"/>
</svg>
