<svg width="61" height="62" viewBox="0 0 61 62" fill="none" xmlns="http://www.w3.org/2000/svg">
<path d="M0.500122 35.8893C0.500122 28.4744 3.68861 23.0987 8.25167 17.9231L23.7375 0.901913L24.1246 1.21831C24.1247 1.2183 24.1247 1.21828 24.1247 1.21827C24.5517 0.695812 24.9673 0.502666 25.3066 0.499954C25.6384 0.497307 26.0358 0.676113 26.4354 1.2038C28.5673 4.01861 31.1419 6.58685 33.7842 9.09913C34.3832 9.66859 34.9851 10.2348 35.5864 10.8004C37.6471 12.7386 39.7004 14.6698 41.5994 16.7022C46.4941 21.9406 50.2783 27.7641 50.2783 35.7862C50.2783 49.5968 39.2874 60.8818 25.4927 60.8818C11.6901 60.8818 0.500122 49.6928 0.500122 35.8893Z" fill="white" stroke="#FF2A23"/>
<path d="M46.6019 47.1019H46.1019V47.6019V59.8981C46.1019 60.7822 45.3841 61.5 44.5 61.5C43.6159 61.5 42.8981 60.7822 42.8981 59.8981V47.6019V47.1019H42.3981H30.1019C29.2178 47.1019 28.5 46.3841 28.5 45.5C28.5 44.6159 29.2178 43.8981 30.1019 43.8981H42.3981H42.8981V43.3981V31.1019C42.8981 30.2178 43.6159 29.5 44.5 29.5C45.3841 29.5 46.1019 30.2178 46.1019 31.1019V43.3981V43.8981H46.6019H58.8981C59.7822 43.8981 60.5 44.6159 60.5 45.5C60.5 46.3841 59.7822 47.1019 58.8981 47.1019H46.6019Z" fill="white" stroke="#FF2A23"/>
</svg>
