<svg width="62" height="62" viewBox="0 0 62 62" fill="none" xmlns="http://www.w3.org/2000/svg">
<circle cx="26.9211" cy="26.9211" r="26.4211" stroke="#FF2A23"/>
<circle cx="35.0788" cy="35.079" r="26.4211" fill="white" stroke="#FF2A23"/>
<path d="M23.1275 39.108C23.1275 35.3471 24.7396 32.6154 27.0852 29.9549L34.9313 20.9731L35.3184 21.2895C35.3184 21.2895 35.3184 21.2895 35.3185 21.2895C35.5121 21.0525 35.6661 21.0062 35.7465 21.0056C35.8194 21.005 35.9605 21.0411 36.1377 21.275C37.2553 22.7506 38.6019 24.0931 39.9728 25.3965C40.2855 25.6938 40.5989 25.9886 40.9115 26.2826C41.9785 27.2862 43.0351 28.2801 44.0136 29.3273C46.5321 32.0226 48.4473 34.9846 48.4473 39.0546C48.4473 46.0839 42.8544 51.8215 35.841 51.8215C28.8197 51.8215 23.1275 46.1297 23.1275 39.108Z" stroke="#FF2A23"/>
<path d="M37.5264 28.5527C39.7018 30.4562 44.0527 34.7527 44.0527 36.7106" stroke="#FF2A23"/>
</svg>
