<svg width="56" height="53" viewBox="0 0 56 53" fill="none" xmlns="http://www.w3.org/2000/svg">
<path d="M53.2857 47.1472H2.71429C1.76751 47.1472 1 48.2462 1 49.6018C1 50.9574 1.76751 52.0563 2.71429 52.0563H53.2857C54.2325 52.0563 55 50.9574 55 49.6018C55 48.2462 54.2325 47.1472 53.2857 47.1472Z" stroke="#FF2A23" stroke-miterlimit="10"/>
<path d="M12.4546 37.3291H5.90918V47.1473H12.4546V37.3291Z" stroke="#FF2A23" stroke-miterlimit="10"/>
<path d="M24.7271 27.511H18.1816V47.1474H24.7271V27.511Z" stroke="#FF2A23" stroke-miterlimit="10"/>
<path d="M37.8182 19.3291H30.4546V47.1473H37.8182V19.3291Z" stroke="#FF2A23" stroke-miterlimit="10"/>
<path d="M50.0909 11.9656H43.5454V47.1474H50.0909V11.9656Z" stroke="#FF2A23" stroke-miterlimit="10"/>
<path d="M54.0689 1H46.6206V5.65517H54.0689L52.6723 3.32759L54.0689 1Z" fill="#FF2A23"/>
<path d="M46.6206 12V5.65517M46.6206 5.65517V1H54.0689L52.6723 3.32759L54.0689 5.65517H46.6206Z" stroke="#FF2A23"/>
</svg>
